M48
; DRILL file {KiCad (5.1.8)-1} date 12/12/20 19:45:28
; FORMAT={-:-/ absolute / inch / decimal}
; #@! TF.CreationDate,2020-12-12T19:45:28+01:00
; #@! TF.GenerationSoftware,Kicad,Pcbnew,(5.1.8)-1
FMAT,2
INCH
T1C0.0315
T2C0.0394
T3C0.0512
T4C0.0520
T5C0.1181
T6C0.1063
%
G90
G05
T1
X1.6898Y-1.611
X2.6447Y-0.8386
X2.6447Y-1.2386
X2.0315Y-1.2598
X2.0315Y-1.4094
X1.878Y-1.5472
X1.878Y-1.7441
X2.0945Y-1.563
X2.0945Y-1.763
X2.1945Y-1.663
X2.6348Y-1.353
X2.6348Y-1.753
X3.2598Y-1.0453
X3.2598Y-1.2453
X3.3598Y-1.1453
X3.0935Y-0.8402
X3.0935Y-1.2402
X2.9478Y-0.8362
X2.9478Y-1.2362
X1.3898Y-1.311
X1.3898Y-1.411
X1.3898Y-1.511
X1.3898Y-1.611
X1.6898Y-1.311
X1.6898Y-1.411
X1.6898Y-1.511
X2.0315Y-0.8937
X2.0315Y-1.0433
X2.7982Y-0.8402
X2.7982Y-1.2402
X2.3039Y-1.3996
X2.4039Y-1.4996
X2.5039Y-1.3996
X2.7923Y-1.3553
X2.7923Y-1.7553
X2.3061Y-1.7195
X2.4061Y-1.6195
X2.5061Y-1.7195
X2.4911Y-0.8346
X2.4911Y-1.2346
T2
X3.0325Y-1.0797
X1.4843Y-1.748
X1.5843Y-1.748
T3
X0.8701Y-1.0039
X1.7559Y-1.0039
T4
X3.1437Y-1.4665
X3.1437Y-1.6634
X1.0551Y-1.3622
X1.0551Y-1.5591
T5
X2.31Y-1.1644
T6
X1.313Y-1.0039
T0
M30
