%TF.GenerationSoftware,KiCad,Pcbnew,(5.1.8)-1*%
%TF.CreationDate,2020-12-12T19:45:24+01:00*%
%TF.ProjectId,blink_controller,626c696e-6b5f-4636-9f6e-74726f6c6c65,rev?*%
%TF.SameCoordinates,Original*%
%TF.FileFunction,Copper,L1,Top*%
%TF.FilePolarity,Positive*%
%FSLAX46Y46*%
G04 Gerber Fmt 4.6, Leading zero omitted, Abs format (unit mm)*
G04 Created by KiCad (PCBNEW (5.1.8)-1) date 2020-12-12 19:45:24*
%MOMM*%
%LPD*%
G01*
G04 APERTURE LIST*
%TA.AperFunction,ComponentPad*%
%ADD10C,3.000000*%
%TD*%
%TA.AperFunction,ComponentPad*%
%ADD11O,1.600000X1.600000*%
%TD*%
%TA.AperFunction,ComponentPad*%
%ADD12R,1.600000X1.600000*%
%TD*%
%TA.AperFunction,ComponentPad*%
%ADD13C,1.700000*%
%TD*%
%TA.AperFunction,ComponentPad*%
%ADD14C,1.600000*%
%TD*%
%TA.AperFunction,ComponentPad*%
%ADD15R,1.500000X1.500000*%
%TD*%
%TA.AperFunction,ComponentPad*%
%ADD16C,1.500000*%
%TD*%
%TA.AperFunction,ComponentPad*%
%ADD17O,3.960000X1.980000*%
%TD*%
%TA.AperFunction,ComponentPad*%
%ADD18R,3.960000X1.980000*%
%TD*%
%TA.AperFunction,ViaPad*%
%ADD19C,5.000000*%
%TD*%
%TA.AperFunction,ViaPad*%
%ADD20C,2.000000*%
%TD*%
%TA.AperFunction,Conductor*%
%ADD21C,1.000000*%
%TD*%
G04 APERTURE END LIST*
D10*
%TO.P,F1,2*%
%TO.N,Net-(F1-Pad2)*%
X22100000Y-25500000D03*
%TO.P,F1,1*%
%TO.N,/VCC*%
X44600000Y-25500000D03*
%TD*%
D11*
%TO.P,U1,8*%
%TO.N,Net-(R2-Pad1)*%
X42920000Y-33300000D03*
%TO.P,U1,4*%
%TO.N,/VCC*%
X35300000Y-40920000D03*
%TO.P,U1,7*%
%TO.N,Net-(R6-Pad2)*%
X42920000Y-35840000D03*
%TO.P,U1,3*%
%TO.N,Net-(R1-Pad1)*%
X35300000Y-38380000D03*
%TO.P,U1,6*%
%TO.N,Net-(C2-Pad1)*%
X42920000Y-38380000D03*
%TO.P,U1,2*%
X35300000Y-35840000D03*
%TO.P,U1,5*%
%TO.N,Net-(C1-Pad1)*%
X42920000Y-40920000D03*
D12*
%TO.P,U1,1*%
%TO.N,/GND*%
X35300000Y-33300000D03*
%TD*%
D13*
%TO.P,SW1,2*%
%TO.N,Net-(R2-Pad1)*%
X40240000Y-44400000D03*
%TO.P,SW1,1*%
%TO.N,/VCC*%
X37700000Y-44400000D03*
%TD*%
D11*
%TO.P,R7,2*%
%TO.N,Net-(R6-Pad2)*%
X66925000Y-34365000D03*
D14*
%TO.P,R7,1*%
%TO.N,Net-(C2-Pad1)*%
X66925000Y-44525000D03*
%TD*%
D11*
%TO.P,R6,2*%
%TO.N,Net-(R6-Pad2)*%
X63275000Y-31360000D03*
D14*
%TO.P,R6,1*%
%TO.N,/VCC*%
X63275000Y-21200000D03*
%TD*%
D11*
%TO.P,R5,2*%
%TO.N,Net-(Q1-Pad3)*%
X74875000Y-21240000D03*
D14*
%TO.P,R5,1*%
%TO.N,/VCC*%
X74875000Y-31400000D03*
%TD*%
D11*
%TO.P,R4,2*%
%TO.N,Net-(Q4-Pad2)*%
X70925000Y-44585000D03*
D14*
%TO.P,R4,1*%
%TO.N,Net-(Q1-Pad3)*%
X70925000Y-34425000D03*
%TD*%
D11*
%TO.P,R3,2*%
%TO.N,Net-(Q2-Pad3)*%
X71075000Y-21340000D03*
D14*
%TO.P,R3,1*%
%TO.N,/VCC*%
X71075000Y-31500000D03*
%TD*%
D11*
%TO.P,R2,2*%
%TO.N,Net-(Q2-Pad2)*%
X78575000Y-21340000D03*
D14*
%TO.P,R2,1*%
%TO.N,Net-(R2-Pad1)*%
X78575000Y-31500000D03*
%TD*%
D11*
%TO.P,R1,2*%
%TO.N,Net-(Q1-Pad2)*%
X67175000Y-31460000D03*
D14*
%TO.P,R1,1*%
%TO.N,Net-(R1-Pad1)*%
X67175000Y-21300000D03*
%TD*%
D15*
%TO.P,Q4,1*%
%TO.N,/VCC*%
X82800000Y-26550000D03*
D16*
%TO.P,Q4,3*%
%TO.N,Net-(J2-Pad1)*%
X82800000Y-31630000D03*
%TO.P,Q4,2*%
%TO.N,Net-(Q4-Pad2)*%
X85340000Y-29090000D03*
%TD*%
D15*
%TO.P,Q3,3*%
%TO.N,Net-(Q1-Pad3)*%
X63600000Y-35550000D03*
D16*
%TO.P,Q3,1*%
%TO.N,/GND*%
X58520000Y-35550000D03*
%TO.P,Q3,2*%
%TO.N,Net-(Q2-Pad3)*%
X61060000Y-38090000D03*
%TD*%
D15*
%TO.P,Q2,3*%
%TO.N,Net-(Q2-Pad3)*%
X58575000Y-43675000D03*
D16*
%TO.P,Q2,1*%
%TO.N,/GND*%
X63655000Y-43675000D03*
%TO.P,Q2,2*%
%TO.N,Net-(Q2-Pad2)*%
X61115000Y-41135000D03*
%TD*%
D15*
%TO.P,Q1,3*%
%TO.N,Net-(Q1-Pad3)*%
X53200000Y-39700000D03*
D16*
%TO.P,Q1,1*%
%TO.N,/GND*%
X53200000Y-44780000D03*
%TO.P,Q1,2*%
%TO.N,Net-(Q1-Pad2)*%
X55740000Y-42240000D03*
%TD*%
D17*
%TO.P,J2,2*%
%TO.N,/GND*%
X79850000Y-37250000D03*
D18*
%TO.P,J2,1*%
%TO.N,Net-(J2-Pad1)*%
X79850000Y-42250000D03*
%TD*%
D17*
%TO.P,J1,2*%
%TO.N,/GND*%
X26800000Y-39600000D03*
D18*
%TO.P,J1,1*%
%TO.N,Net-(F1-Pad2)*%
X26800000Y-34600000D03*
%TD*%
D14*
%TO.P,C3,2*%
%TO.N,/GND*%
X51600000Y-22700000D03*
D12*
%TO.P,C3,1*%
%TO.N,Net-(C2-Pad2)*%
X51600000Y-26500000D03*
%TD*%
D14*
%TO.P,C2,2*%
%TO.N,Net-(C2-Pad2)*%
X51600000Y-32000000D03*
D12*
%TO.P,C2,1*%
%TO.N,Net-(C2-Pad1)*%
X51600000Y-35800000D03*
%TD*%
D14*
%TO.P,C1,2*%
%TO.N,/GND*%
X47700000Y-39300000D03*
%TO.P,C1,1*%
%TO.N,Net-(C1-Pad1)*%
X47700000Y-44300000D03*
%TD*%
D19*
%TO.N,*%
X58675000Y-29575000D03*
D20*
%TO.N,Net-(Q2-Pad3)*%
X77025000Y-27425000D03*
%TD*%
D21*
%TO.N,/GND*%
X36800001Y-31799999D02*
X35300000Y-33300000D01*
X43640001Y-31799999D02*
X36800001Y-31799999D01*
X51600000Y-22700000D02*
X51600000Y-23840000D01*
X47700000Y-29800000D02*
X46670000Y-28770000D01*
X47700000Y-39300000D02*
X47700000Y-29800000D01*
X46670000Y-28770000D02*
X43640001Y-31799999D01*
X51600000Y-23840000D02*
X46670000Y-28770000D01*
%TO.N,Net-(C2-Pad1)*%
X40380000Y-35840000D02*
X42920000Y-38380000D01*
X35300000Y-35840000D02*
X40380000Y-35840000D01*
X66925000Y-44525000D02*
X66250000Y-45200000D01*
X55766002Y-45200000D02*
X51600000Y-41033998D01*
X51600000Y-41033998D02*
X51600000Y-35800000D01*
X66250000Y-45200000D02*
X55766002Y-45200000D01*
%TO.N,Net-(Q1-Pad3)*%
X72575001Y-32774999D02*
X70925000Y-34425000D01*
X72575001Y-23539999D02*
X72575001Y-32774999D01*
X74875000Y-21240000D02*
X72575001Y-23539999D01*
X63915001Y-35865001D02*
X63600000Y-35550000D01*
X69484999Y-35865001D02*
X63915001Y-35865001D01*
X70925000Y-34425000D02*
X69484999Y-35865001D01*
%TO.N,Net-(Q1-Pad2)*%
X65774999Y-32860001D02*
X67175000Y-31460000D01*
X63529997Y-32860001D02*
X65774999Y-32860001D01*
X55740000Y-40649998D02*
X63529997Y-32860001D01*
X55740000Y-42240000D02*
X55740000Y-40649998D01*
%TO.N,Net-(Q2-Pad3)*%
X58575000Y-40575000D02*
X61060000Y-38090000D01*
X58575000Y-43675000D02*
X58575000Y-40575000D01*
X77074999Y-32200001D02*
X77074999Y-28675001D01*
X71185000Y-38090000D02*
X77074999Y-32200001D01*
X61060000Y-38090000D02*
X71185000Y-38090000D01*
X77025000Y-28625002D02*
X77074999Y-28675001D01*
X77025000Y-27425000D02*
X77025000Y-28625002D01*
%TO.N,Net-(R1-Pad1)*%
X39340001Y-42420001D02*
X35300000Y-38380000D01*
X46800001Y-42420001D02*
X39340001Y-42420001D01*
X49200001Y-40020001D02*
X46800001Y-42420001D01*
X49200001Y-31760001D02*
X49200001Y-40020001D01*
X54585003Y-26374999D02*
X49200001Y-31760001D01*
X62100001Y-26374999D02*
X54585003Y-26374999D01*
X67175000Y-21300000D02*
X62100001Y-26374999D01*
%TD*%
M02*
