%TF.GenerationSoftware,KiCad,Pcbnew,(5.1.8)-1*%
%TF.CreationDate,2020-12-12T19:45:24+01:00*%
%TF.ProjectId,blink_controller,626c696e-6b5f-4636-9f6e-74726f6c6c65,rev?*%
%TF.SameCoordinates,Original*%
%TF.FileFunction,Legend,Top*%
%TF.FilePolarity,Positive*%
%FSLAX46Y46*%
G04 Gerber Fmt 4.6, Leading zero omitted, Abs format (unit mm)*
G04 Created by KiCad (PCBNEW (5.1.8)-1) date 2020-12-12 19:45:24*
%MOMM*%
%LPD*%
G01*
G04 APERTURE LIST*
%ADD10C,0.150000*%
%ADD11C,0.120000*%
G04 APERTURE END LIST*
D10*
X32890476Y-28552380D02*
X32414285Y-28552380D01*
X32366666Y-29028571D01*
X32414285Y-28980952D01*
X32509523Y-28933333D01*
X32747619Y-28933333D01*
X32842857Y-28980952D01*
X32890476Y-29028571D01*
X32938095Y-29123809D01*
X32938095Y-29361904D01*
X32890476Y-29457142D01*
X32842857Y-29504761D01*
X32747619Y-29552380D01*
X32509523Y-29552380D01*
X32414285Y-29504761D01*
X32366666Y-29457142D01*
X33557142Y-28552380D02*
X33652380Y-28552380D01*
X33747619Y-28600000D01*
X33795238Y-28647619D01*
X33842857Y-28742857D01*
X33890476Y-28933333D01*
X33890476Y-29171428D01*
X33842857Y-29361904D01*
X33795238Y-29457142D01*
X33747619Y-29504761D01*
X33652380Y-29552380D01*
X33557142Y-29552380D01*
X33461904Y-29504761D01*
X33414285Y-29457142D01*
X33366666Y-29361904D01*
X33319047Y-29171428D01*
X33319047Y-28933333D01*
X33366666Y-28742857D01*
X33414285Y-28647619D01*
X33461904Y-28600000D01*
X33557142Y-28552380D01*
X34509523Y-28552380D02*
X34604761Y-28552380D01*
X34700000Y-28600000D01*
X34747619Y-28647619D01*
X34795238Y-28742857D01*
X34842857Y-28933333D01*
X34842857Y-29171428D01*
X34795238Y-29361904D01*
X34747619Y-29457142D01*
X34700000Y-29504761D01*
X34604761Y-29552380D01*
X34509523Y-29552380D01*
X34414285Y-29504761D01*
X34366666Y-29457142D01*
X34319047Y-29361904D01*
X34271428Y-29171428D01*
X34271428Y-28933333D01*
X34319047Y-28742857D01*
X34366666Y-28647619D01*
X34414285Y-28600000D01*
X34509523Y-28552380D01*
X35271428Y-29552380D02*
X35271428Y-28885714D01*
X35271428Y-28980952D02*
X35319047Y-28933333D01*
X35414285Y-28885714D01*
X35557142Y-28885714D01*
X35652380Y-28933333D01*
X35700000Y-29028571D01*
X35700000Y-29552380D01*
X35700000Y-29028571D02*
X35747619Y-28933333D01*
X35842857Y-28885714D01*
X35985714Y-28885714D01*
X36080952Y-28933333D01*
X36128571Y-29028571D01*
X36128571Y-29552380D01*
X36557142Y-29266666D02*
X37033333Y-29266666D01*
X36461904Y-29552380D02*
X36795238Y-28552380D01*
X37128571Y-29552380D01*
D11*
%TO.C,F1*%
X21990000Y-20590000D02*
X21990000Y-23750000D01*
X21990000Y-27250000D02*
X21990000Y-30410000D01*
X44710000Y-27250000D02*
X44710000Y-30410000D01*
X44710000Y-30410000D02*
X21990000Y-30410000D01*
X44710000Y-20590000D02*
X21990000Y-20590000D01*
X44710000Y-20590000D02*
X44710000Y-23750000D01*
%TO.C,U1*%
X40110000Y-31970000D02*
G75*
G02*
X38110000Y-31970000I-1000000J0D01*
G01*
X38110000Y-31970000D02*
X36460000Y-31970000D01*
X36460000Y-31970000D02*
X36460000Y-42250000D01*
X36460000Y-42250000D02*
X41760000Y-42250000D01*
X41760000Y-42250000D02*
X41760000Y-31970000D01*
X41760000Y-31970000D02*
X40110000Y-31970000D01*
%TO.C,R7*%
X65555000Y-42715000D02*
X68295000Y-42715000D01*
X68295000Y-42715000D02*
X68295000Y-36175000D01*
X68295000Y-36175000D02*
X65555000Y-36175000D01*
X65555000Y-36175000D02*
X65555000Y-42715000D01*
X66925000Y-43485000D02*
X66925000Y-42715000D01*
X66925000Y-35405000D02*
X66925000Y-36175000D01*
%TO.C,R6*%
X64645000Y-23010000D02*
X61905000Y-23010000D01*
X61905000Y-23010000D02*
X61905000Y-29550000D01*
X61905000Y-29550000D02*
X64645000Y-29550000D01*
X64645000Y-29550000D02*
X64645000Y-23010000D01*
X63275000Y-22240000D02*
X63275000Y-23010000D01*
X63275000Y-30320000D02*
X63275000Y-29550000D01*
%TO.C,R5*%
X73505000Y-29590000D02*
X76245000Y-29590000D01*
X76245000Y-29590000D02*
X76245000Y-23050000D01*
X76245000Y-23050000D02*
X73505000Y-23050000D01*
X73505000Y-23050000D02*
X73505000Y-29590000D01*
X74875000Y-30360000D02*
X74875000Y-29590000D01*
X74875000Y-22280000D02*
X74875000Y-23050000D01*
%TO.C,R4*%
X72295000Y-36235000D02*
X69555000Y-36235000D01*
X69555000Y-36235000D02*
X69555000Y-42775000D01*
X69555000Y-42775000D02*
X72295000Y-42775000D01*
X72295000Y-42775000D02*
X72295000Y-36235000D01*
X70925000Y-35465000D02*
X70925000Y-36235000D01*
X70925000Y-43545000D02*
X70925000Y-42775000D01*
%TO.C,R3*%
X69705000Y-29690000D02*
X72445000Y-29690000D01*
X72445000Y-29690000D02*
X72445000Y-23150000D01*
X72445000Y-23150000D02*
X69705000Y-23150000D01*
X69705000Y-23150000D02*
X69705000Y-29690000D01*
X71075000Y-30460000D02*
X71075000Y-29690000D01*
X71075000Y-22380000D02*
X71075000Y-23150000D01*
%TO.C,R2*%
X77205000Y-29690000D02*
X79945000Y-29690000D01*
X79945000Y-29690000D02*
X79945000Y-23150000D01*
X79945000Y-23150000D02*
X77205000Y-23150000D01*
X77205000Y-23150000D02*
X77205000Y-29690000D01*
X78575000Y-30460000D02*
X78575000Y-29690000D01*
X78575000Y-22380000D02*
X78575000Y-23150000D01*
%TO.C,R1*%
X68545000Y-23110000D02*
X65805000Y-23110000D01*
X65805000Y-23110000D02*
X65805000Y-29650000D01*
X65805000Y-29650000D02*
X68545000Y-29650000D01*
X68545000Y-29650000D02*
X68545000Y-23110000D01*
X67175000Y-22340000D02*
X67175000Y-23110000D01*
X67175000Y-30420000D02*
X67175000Y-29650000D01*
%TO.C,Q4*%
X81677205Y-31414184D02*
G75*
G02*
X80950000Y-30890000I1122795J2324184D01*
G01*
X83898371Y-31445457D02*
G75*
G03*
X85150000Y-30200000I-1098371J2355457D01*
G01*
X83903842Y-26722801D02*
G75*
G02*
X85150000Y-27950000I-1103842J-2367199D01*
G01*
X81677205Y-26765816D02*
G75*
G03*
X80950000Y-27290000I1122795J-2324184D01*
G01*
X80950000Y-27290000D02*
X80950000Y-30890000D01*
%TO.C,Q3*%
X58735816Y-34427205D02*
G75*
G02*
X59260000Y-33700000I2324184J-1122795D01*
G01*
X58704543Y-36648371D02*
G75*
G03*
X59950000Y-37900000I2355457J1098371D01*
G01*
X63427199Y-36653842D02*
G75*
G02*
X62200000Y-37900000I-2367199J1103842D01*
G01*
X63384184Y-34427205D02*
G75*
G03*
X62860000Y-33700000I-2324184J-1122795D01*
G01*
X62860000Y-33700000D02*
X59260000Y-33700000D01*
%TO.C,Q2*%
X63439184Y-44797795D02*
G75*
G02*
X62915000Y-45525000I-2324184J1122795D01*
G01*
X63470457Y-42576629D02*
G75*
G03*
X62225000Y-41325000I-2355457J-1098371D01*
G01*
X58747801Y-42571158D02*
G75*
G02*
X59975000Y-41325000I2367199J-1103842D01*
G01*
X58790816Y-44797795D02*
G75*
G03*
X59315000Y-45525000I2324184J1122795D01*
G01*
X59315000Y-45525000D02*
X62915000Y-45525000D01*
%TO.C,Q1*%
X52077205Y-44564184D02*
G75*
G02*
X51350000Y-44040000I1122795J2324184D01*
G01*
X54298371Y-44595457D02*
G75*
G03*
X55550000Y-43350000I-1098371J2355457D01*
G01*
X54303842Y-39872801D02*
G75*
G02*
X55550000Y-41100000I-1103842J-2367199D01*
G01*
X52077205Y-39915816D02*
G75*
G03*
X51350000Y-40440000I1122795J-2324184D01*
G01*
X51350000Y-40440000D02*
X51350000Y-44040000D01*
%TO.C,J2*%
X73550000Y-44900000D02*
X86150000Y-44900000D01*
X86150000Y-44900000D02*
X86150000Y-34550000D01*
X86150000Y-34550000D02*
X85200000Y-34550000D01*
X85200000Y-34550000D02*
X85450000Y-34050000D01*
X85450000Y-34050000D02*
X83550000Y-34050000D01*
X83550000Y-34050000D02*
X83500000Y-34050000D01*
X83500000Y-34050000D02*
X83750000Y-34550000D01*
X83750000Y-34550000D02*
X78350000Y-34550000D01*
X78350000Y-34550000D02*
X78650000Y-34050000D01*
X78650000Y-34050000D02*
X73550000Y-34050000D01*
X73550000Y-34050000D02*
X73550000Y-44900000D01*
%TO.C,J1*%
X33100000Y-31950000D02*
X20500000Y-31950000D01*
X20500000Y-31950000D02*
X20500000Y-42300000D01*
X20500000Y-42300000D02*
X21450000Y-42300000D01*
X21450000Y-42300000D02*
X21200000Y-42800000D01*
X21200000Y-42800000D02*
X23100000Y-42800000D01*
X23100000Y-42800000D02*
X23150000Y-42800000D01*
X23150000Y-42800000D02*
X22900000Y-42300000D01*
X22900000Y-42300000D02*
X28300000Y-42300000D01*
X28300000Y-42300000D02*
X28000000Y-42800000D01*
X28000000Y-42800000D02*
X33100000Y-42800000D01*
X33100000Y-42800000D02*
X33100000Y-31950000D01*
%TO.C,C3*%
X55720000Y-24600000D02*
G75*
G03*
X55720000Y-24600000I-4120000J0D01*
G01*
X47520000Y-24600000D02*
X55680000Y-24600000D01*
X47520000Y-24560000D02*
X55680000Y-24560000D01*
X47520000Y-24520000D02*
X55680000Y-24520000D01*
X47521000Y-24480000D02*
X55679000Y-24480000D01*
X47523000Y-24440000D02*
X55677000Y-24440000D01*
X47524000Y-24400000D02*
X55676000Y-24400000D01*
X47526000Y-24360000D02*
X55674000Y-24360000D01*
X47529000Y-24320000D02*
X55671000Y-24320000D01*
X47532000Y-24280000D02*
X55668000Y-24280000D01*
X47535000Y-24240000D02*
X55665000Y-24240000D01*
X47539000Y-24200000D02*
X55661000Y-24200000D01*
X47543000Y-24160000D02*
X55657000Y-24160000D01*
X47548000Y-24120000D02*
X55652000Y-24120000D01*
X47552000Y-24080000D02*
X55648000Y-24080000D01*
X47558000Y-24040000D02*
X55642000Y-24040000D01*
X47563000Y-24000000D02*
X55637000Y-24000000D01*
X47570000Y-23960000D02*
X55630000Y-23960000D01*
X47576000Y-23920000D02*
X55624000Y-23920000D01*
X47583000Y-23879000D02*
X55617000Y-23879000D01*
X47590000Y-23839000D02*
X55610000Y-23839000D01*
X47598000Y-23799000D02*
X55602000Y-23799000D01*
X47606000Y-23759000D02*
X55594000Y-23759000D01*
X47615000Y-23719000D02*
X50560000Y-23719000D01*
X52640000Y-23719000D02*
X55585000Y-23719000D01*
X47624000Y-23679000D02*
X50560000Y-23679000D01*
X52640000Y-23679000D02*
X55576000Y-23679000D01*
X47633000Y-23639000D02*
X50560000Y-23639000D01*
X52640000Y-23639000D02*
X55567000Y-23639000D01*
X47643000Y-23599000D02*
X50560000Y-23599000D01*
X52640000Y-23599000D02*
X55557000Y-23599000D01*
X47653000Y-23559000D02*
X50560000Y-23559000D01*
X52640000Y-23559000D02*
X55547000Y-23559000D01*
X47664000Y-23519000D02*
X50560000Y-23519000D01*
X52640000Y-23519000D02*
X55536000Y-23519000D01*
X47675000Y-23479000D02*
X50560000Y-23479000D01*
X52640000Y-23479000D02*
X55525000Y-23479000D01*
X47686000Y-23439000D02*
X50560000Y-23439000D01*
X52640000Y-23439000D02*
X55514000Y-23439000D01*
X47698000Y-23399000D02*
X50560000Y-23399000D01*
X52640000Y-23399000D02*
X55502000Y-23399000D01*
X47711000Y-23359000D02*
X50560000Y-23359000D01*
X52640000Y-23359000D02*
X55489000Y-23359000D01*
X47723000Y-23319000D02*
X50560000Y-23319000D01*
X52640000Y-23319000D02*
X55477000Y-23319000D01*
X47737000Y-23279000D02*
X50560000Y-23279000D01*
X52640000Y-23279000D02*
X55463000Y-23279000D01*
X47750000Y-23239000D02*
X50560000Y-23239000D01*
X52640000Y-23239000D02*
X55450000Y-23239000D01*
X47765000Y-23199000D02*
X50560000Y-23199000D01*
X52640000Y-23199000D02*
X55435000Y-23199000D01*
X47779000Y-23159000D02*
X50560000Y-23159000D01*
X52640000Y-23159000D02*
X55421000Y-23159000D01*
X47795000Y-23119000D02*
X50560000Y-23119000D01*
X52640000Y-23119000D02*
X55405000Y-23119000D01*
X47810000Y-23079000D02*
X50560000Y-23079000D01*
X52640000Y-23079000D02*
X55390000Y-23079000D01*
X47826000Y-23039000D02*
X50560000Y-23039000D01*
X52640000Y-23039000D02*
X55374000Y-23039000D01*
X47843000Y-22999000D02*
X50560000Y-22999000D01*
X52640000Y-22999000D02*
X55357000Y-22999000D01*
X47860000Y-22959000D02*
X50560000Y-22959000D01*
X52640000Y-22959000D02*
X55340000Y-22959000D01*
X47878000Y-22919000D02*
X50560000Y-22919000D01*
X52640000Y-22919000D02*
X55322000Y-22919000D01*
X47896000Y-22879000D02*
X50560000Y-22879000D01*
X52640000Y-22879000D02*
X55304000Y-22879000D01*
X47914000Y-22839000D02*
X50560000Y-22839000D01*
X52640000Y-22839000D02*
X55286000Y-22839000D01*
X47934000Y-22799000D02*
X50560000Y-22799000D01*
X52640000Y-22799000D02*
X55266000Y-22799000D01*
X47953000Y-22759000D02*
X50560000Y-22759000D01*
X52640000Y-22759000D02*
X55247000Y-22759000D01*
X47973000Y-22719000D02*
X50560000Y-22719000D01*
X52640000Y-22719000D02*
X55227000Y-22719000D01*
X47994000Y-22679000D02*
X50560000Y-22679000D01*
X52640000Y-22679000D02*
X55206000Y-22679000D01*
X48016000Y-22639000D02*
X50560000Y-22639000D01*
X52640000Y-22639000D02*
X55184000Y-22639000D01*
X48038000Y-22599000D02*
X50560000Y-22599000D01*
X52640000Y-22599000D02*
X55162000Y-22599000D01*
X48060000Y-22559000D02*
X50560000Y-22559000D01*
X52640000Y-22559000D02*
X55140000Y-22559000D01*
X48083000Y-22519000D02*
X50560000Y-22519000D01*
X52640000Y-22519000D02*
X55117000Y-22519000D01*
X48107000Y-22479000D02*
X50560000Y-22479000D01*
X52640000Y-22479000D02*
X55093000Y-22479000D01*
X48131000Y-22439000D02*
X50560000Y-22439000D01*
X52640000Y-22439000D02*
X55069000Y-22439000D01*
X48156000Y-22399000D02*
X50560000Y-22399000D01*
X52640000Y-22399000D02*
X55044000Y-22399000D01*
X48182000Y-22359000D02*
X50560000Y-22359000D01*
X52640000Y-22359000D02*
X55018000Y-22359000D01*
X48208000Y-22319000D02*
X50560000Y-22319000D01*
X52640000Y-22319000D02*
X54992000Y-22319000D01*
X48235000Y-22279000D02*
X50560000Y-22279000D01*
X52640000Y-22279000D02*
X54965000Y-22279000D01*
X48262000Y-22239000D02*
X50560000Y-22239000D01*
X52640000Y-22239000D02*
X54938000Y-22239000D01*
X48291000Y-22199000D02*
X50560000Y-22199000D01*
X52640000Y-22199000D02*
X54909000Y-22199000D01*
X48320000Y-22159000D02*
X50560000Y-22159000D01*
X52640000Y-22159000D02*
X54880000Y-22159000D01*
X48350000Y-22119000D02*
X50560000Y-22119000D01*
X52640000Y-22119000D02*
X54850000Y-22119000D01*
X48380000Y-22079000D02*
X50560000Y-22079000D01*
X52640000Y-22079000D02*
X54820000Y-22079000D01*
X48411000Y-22039000D02*
X50560000Y-22039000D01*
X52640000Y-22039000D02*
X54789000Y-22039000D01*
X48444000Y-21999000D02*
X50560000Y-21999000D01*
X52640000Y-21999000D02*
X54756000Y-21999000D01*
X48476000Y-21959000D02*
X50560000Y-21959000D01*
X52640000Y-21959000D02*
X54724000Y-21959000D01*
X48510000Y-21919000D02*
X50560000Y-21919000D01*
X52640000Y-21919000D02*
X54690000Y-21919000D01*
X48545000Y-21879000D02*
X50560000Y-21879000D01*
X52640000Y-21879000D02*
X54655000Y-21879000D01*
X48581000Y-21839000D02*
X50560000Y-21839000D01*
X52640000Y-21839000D02*
X54619000Y-21839000D01*
X48617000Y-21799000D02*
X50560000Y-21799000D01*
X52640000Y-21799000D02*
X54583000Y-21799000D01*
X48655000Y-21759000D02*
X50560000Y-21759000D01*
X52640000Y-21759000D02*
X54545000Y-21759000D01*
X48693000Y-21719000D02*
X50560000Y-21719000D01*
X52640000Y-21719000D02*
X54507000Y-21719000D01*
X48733000Y-21679000D02*
X50560000Y-21679000D01*
X52640000Y-21679000D02*
X54467000Y-21679000D01*
X48774000Y-21639000D02*
X54426000Y-21639000D01*
X48816000Y-21599000D02*
X54384000Y-21599000D01*
X48859000Y-21559000D02*
X54341000Y-21559000D01*
X48903000Y-21519000D02*
X54297000Y-21519000D01*
X48949000Y-21479000D02*
X54251000Y-21479000D01*
X48996000Y-21439000D02*
X54204000Y-21439000D01*
X49044000Y-21399000D02*
X54156000Y-21399000D01*
X49095000Y-21359000D02*
X54105000Y-21359000D01*
X49146000Y-21319000D02*
X54054000Y-21319000D01*
X49200000Y-21279000D02*
X54000000Y-21279000D01*
X49255000Y-21239000D02*
X53945000Y-21239000D01*
X49313000Y-21199000D02*
X53887000Y-21199000D01*
X49372000Y-21159000D02*
X53828000Y-21159000D01*
X49434000Y-21119000D02*
X53766000Y-21119000D01*
X49498000Y-21079000D02*
X53702000Y-21079000D01*
X49566000Y-21039000D02*
X53634000Y-21039000D01*
X49636000Y-20999000D02*
X53564000Y-20999000D01*
X49710000Y-20959000D02*
X53490000Y-20959000D01*
X49787000Y-20919000D02*
X53413000Y-20919000D01*
X49869000Y-20879000D02*
X53331000Y-20879000D01*
X49955000Y-20839000D02*
X53245000Y-20839000D01*
X50048000Y-20799000D02*
X53152000Y-20799000D01*
X50147000Y-20759000D02*
X53053000Y-20759000D01*
X50254000Y-20719000D02*
X52946000Y-20719000D01*
X50371000Y-20679000D02*
X52829000Y-20679000D01*
X50502000Y-20639000D02*
X52698000Y-20639000D01*
X50652000Y-20599000D02*
X52548000Y-20599000D01*
X50832000Y-20559000D02*
X52368000Y-20559000D01*
X51067000Y-20519000D02*
X52133000Y-20519000D01*
X49285000Y-29009698D02*
X49285000Y-28209698D01*
X48885000Y-28609698D02*
X49685000Y-28609698D01*
%TO.C,C2*%
X55720000Y-33900000D02*
G75*
G03*
X55720000Y-33900000I-4120000J0D01*
G01*
X47520000Y-33900000D02*
X55680000Y-33900000D01*
X47520000Y-33860000D02*
X55680000Y-33860000D01*
X47520000Y-33820000D02*
X55680000Y-33820000D01*
X47521000Y-33780000D02*
X55679000Y-33780000D01*
X47523000Y-33740000D02*
X55677000Y-33740000D01*
X47524000Y-33700000D02*
X55676000Y-33700000D01*
X47526000Y-33660000D02*
X55674000Y-33660000D01*
X47529000Y-33620000D02*
X55671000Y-33620000D01*
X47532000Y-33580000D02*
X55668000Y-33580000D01*
X47535000Y-33540000D02*
X55665000Y-33540000D01*
X47539000Y-33500000D02*
X55661000Y-33500000D01*
X47543000Y-33460000D02*
X55657000Y-33460000D01*
X47548000Y-33420000D02*
X55652000Y-33420000D01*
X47552000Y-33380000D02*
X55648000Y-33380000D01*
X47558000Y-33340000D02*
X55642000Y-33340000D01*
X47563000Y-33300000D02*
X55637000Y-33300000D01*
X47570000Y-33260000D02*
X55630000Y-33260000D01*
X47576000Y-33220000D02*
X55624000Y-33220000D01*
X47583000Y-33179000D02*
X55617000Y-33179000D01*
X47590000Y-33139000D02*
X55610000Y-33139000D01*
X47598000Y-33099000D02*
X55602000Y-33099000D01*
X47606000Y-33059000D02*
X55594000Y-33059000D01*
X47615000Y-33019000D02*
X50560000Y-33019000D01*
X52640000Y-33019000D02*
X55585000Y-33019000D01*
X47624000Y-32979000D02*
X50560000Y-32979000D01*
X52640000Y-32979000D02*
X55576000Y-32979000D01*
X47633000Y-32939000D02*
X50560000Y-32939000D01*
X52640000Y-32939000D02*
X55567000Y-32939000D01*
X47643000Y-32899000D02*
X50560000Y-32899000D01*
X52640000Y-32899000D02*
X55557000Y-32899000D01*
X47653000Y-32859000D02*
X50560000Y-32859000D01*
X52640000Y-32859000D02*
X55547000Y-32859000D01*
X47664000Y-32819000D02*
X50560000Y-32819000D01*
X52640000Y-32819000D02*
X55536000Y-32819000D01*
X47675000Y-32779000D02*
X50560000Y-32779000D01*
X52640000Y-32779000D02*
X55525000Y-32779000D01*
X47686000Y-32739000D02*
X50560000Y-32739000D01*
X52640000Y-32739000D02*
X55514000Y-32739000D01*
X47698000Y-32699000D02*
X50560000Y-32699000D01*
X52640000Y-32699000D02*
X55502000Y-32699000D01*
X47711000Y-32659000D02*
X50560000Y-32659000D01*
X52640000Y-32659000D02*
X55489000Y-32659000D01*
X47723000Y-32619000D02*
X50560000Y-32619000D01*
X52640000Y-32619000D02*
X55477000Y-32619000D01*
X47737000Y-32579000D02*
X50560000Y-32579000D01*
X52640000Y-32579000D02*
X55463000Y-32579000D01*
X47750000Y-32539000D02*
X50560000Y-32539000D01*
X52640000Y-32539000D02*
X55450000Y-32539000D01*
X47765000Y-32499000D02*
X50560000Y-32499000D01*
X52640000Y-32499000D02*
X55435000Y-32499000D01*
X47779000Y-32459000D02*
X50560000Y-32459000D01*
X52640000Y-32459000D02*
X55421000Y-32459000D01*
X47795000Y-32419000D02*
X50560000Y-32419000D01*
X52640000Y-32419000D02*
X55405000Y-32419000D01*
X47810000Y-32379000D02*
X50560000Y-32379000D01*
X52640000Y-32379000D02*
X55390000Y-32379000D01*
X47826000Y-32339000D02*
X50560000Y-32339000D01*
X52640000Y-32339000D02*
X55374000Y-32339000D01*
X47843000Y-32299000D02*
X50560000Y-32299000D01*
X52640000Y-32299000D02*
X55357000Y-32299000D01*
X47860000Y-32259000D02*
X50560000Y-32259000D01*
X52640000Y-32259000D02*
X55340000Y-32259000D01*
X47878000Y-32219000D02*
X50560000Y-32219000D01*
X52640000Y-32219000D02*
X55322000Y-32219000D01*
X47896000Y-32179000D02*
X50560000Y-32179000D01*
X52640000Y-32179000D02*
X55304000Y-32179000D01*
X47914000Y-32139000D02*
X50560000Y-32139000D01*
X52640000Y-32139000D02*
X55286000Y-32139000D01*
X47934000Y-32099000D02*
X50560000Y-32099000D01*
X52640000Y-32099000D02*
X55266000Y-32099000D01*
X47953000Y-32059000D02*
X50560000Y-32059000D01*
X52640000Y-32059000D02*
X55247000Y-32059000D01*
X47973000Y-32019000D02*
X50560000Y-32019000D01*
X52640000Y-32019000D02*
X55227000Y-32019000D01*
X47994000Y-31979000D02*
X50560000Y-31979000D01*
X52640000Y-31979000D02*
X55206000Y-31979000D01*
X48016000Y-31939000D02*
X50560000Y-31939000D01*
X52640000Y-31939000D02*
X55184000Y-31939000D01*
X48038000Y-31899000D02*
X50560000Y-31899000D01*
X52640000Y-31899000D02*
X55162000Y-31899000D01*
X48060000Y-31859000D02*
X50560000Y-31859000D01*
X52640000Y-31859000D02*
X55140000Y-31859000D01*
X48083000Y-31819000D02*
X50560000Y-31819000D01*
X52640000Y-31819000D02*
X55117000Y-31819000D01*
X48107000Y-31779000D02*
X50560000Y-31779000D01*
X52640000Y-31779000D02*
X55093000Y-31779000D01*
X48131000Y-31739000D02*
X50560000Y-31739000D01*
X52640000Y-31739000D02*
X55069000Y-31739000D01*
X48156000Y-31699000D02*
X50560000Y-31699000D01*
X52640000Y-31699000D02*
X55044000Y-31699000D01*
X48182000Y-31659000D02*
X50560000Y-31659000D01*
X52640000Y-31659000D02*
X55018000Y-31659000D01*
X48208000Y-31619000D02*
X50560000Y-31619000D01*
X52640000Y-31619000D02*
X54992000Y-31619000D01*
X48235000Y-31579000D02*
X50560000Y-31579000D01*
X52640000Y-31579000D02*
X54965000Y-31579000D01*
X48262000Y-31539000D02*
X50560000Y-31539000D01*
X52640000Y-31539000D02*
X54938000Y-31539000D01*
X48291000Y-31499000D02*
X50560000Y-31499000D01*
X52640000Y-31499000D02*
X54909000Y-31499000D01*
X48320000Y-31459000D02*
X50560000Y-31459000D01*
X52640000Y-31459000D02*
X54880000Y-31459000D01*
X48350000Y-31419000D02*
X50560000Y-31419000D01*
X52640000Y-31419000D02*
X54850000Y-31419000D01*
X48380000Y-31379000D02*
X50560000Y-31379000D01*
X52640000Y-31379000D02*
X54820000Y-31379000D01*
X48411000Y-31339000D02*
X50560000Y-31339000D01*
X52640000Y-31339000D02*
X54789000Y-31339000D01*
X48444000Y-31299000D02*
X50560000Y-31299000D01*
X52640000Y-31299000D02*
X54756000Y-31299000D01*
X48476000Y-31259000D02*
X50560000Y-31259000D01*
X52640000Y-31259000D02*
X54724000Y-31259000D01*
X48510000Y-31219000D02*
X50560000Y-31219000D01*
X52640000Y-31219000D02*
X54690000Y-31219000D01*
X48545000Y-31179000D02*
X50560000Y-31179000D01*
X52640000Y-31179000D02*
X54655000Y-31179000D01*
X48581000Y-31139000D02*
X50560000Y-31139000D01*
X52640000Y-31139000D02*
X54619000Y-31139000D01*
X48617000Y-31099000D02*
X50560000Y-31099000D01*
X52640000Y-31099000D02*
X54583000Y-31099000D01*
X48655000Y-31059000D02*
X50560000Y-31059000D01*
X52640000Y-31059000D02*
X54545000Y-31059000D01*
X48693000Y-31019000D02*
X50560000Y-31019000D01*
X52640000Y-31019000D02*
X54507000Y-31019000D01*
X48733000Y-30979000D02*
X50560000Y-30979000D01*
X52640000Y-30979000D02*
X54467000Y-30979000D01*
X48774000Y-30939000D02*
X54426000Y-30939000D01*
X48816000Y-30899000D02*
X54384000Y-30899000D01*
X48859000Y-30859000D02*
X54341000Y-30859000D01*
X48903000Y-30819000D02*
X54297000Y-30819000D01*
X48949000Y-30779000D02*
X54251000Y-30779000D01*
X48996000Y-30739000D02*
X54204000Y-30739000D01*
X49044000Y-30699000D02*
X54156000Y-30699000D01*
X49095000Y-30659000D02*
X54105000Y-30659000D01*
X49146000Y-30619000D02*
X54054000Y-30619000D01*
X49200000Y-30579000D02*
X54000000Y-30579000D01*
X49255000Y-30539000D02*
X53945000Y-30539000D01*
X49313000Y-30499000D02*
X53887000Y-30499000D01*
X49372000Y-30459000D02*
X53828000Y-30459000D01*
X49434000Y-30419000D02*
X53766000Y-30419000D01*
X49498000Y-30379000D02*
X53702000Y-30379000D01*
X49566000Y-30339000D02*
X53634000Y-30339000D01*
X49636000Y-30299000D02*
X53564000Y-30299000D01*
X49710000Y-30259000D02*
X53490000Y-30259000D01*
X49787000Y-30219000D02*
X53413000Y-30219000D01*
X49869000Y-30179000D02*
X53331000Y-30179000D01*
X49955000Y-30139000D02*
X53245000Y-30139000D01*
X50048000Y-30099000D02*
X53152000Y-30099000D01*
X50147000Y-30059000D02*
X53053000Y-30059000D01*
X50254000Y-30019000D02*
X52946000Y-30019000D01*
X50371000Y-29979000D02*
X52829000Y-29979000D01*
X50502000Y-29939000D02*
X52698000Y-29939000D01*
X50652000Y-29899000D02*
X52548000Y-29899000D01*
X50832000Y-29859000D02*
X52368000Y-29859000D01*
X51067000Y-29819000D02*
X52133000Y-29819000D01*
X49285000Y-38309698D02*
X49285000Y-37509698D01*
X48885000Y-37909698D02*
X49685000Y-37909698D01*
%TO.C,C1*%
X45979000Y-44470000D02*
X45979000Y-39130000D01*
X49421000Y-44470000D02*
X49421000Y-39130000D01*
X45979000Y-44470000D02*
X46645000Y-44470000D01*
X48755000Y-44470000D02*
X49421000Y-44470000D01*
X45979000Y-39130000D02*
X46645000Y-39130000D01*
X48755000Y-39130000D02*
X49421000Y-39130000D01*
%TO.C,F1*%
D10*
X30266666Y-28228571D02*
X29933333Y-28228571D01*
X29933333Y-28752380D02*
X29933333Y-27752380D01*
X30409523Y-27752380D01*
X31314285Y-28752380D02*
X30742857Y-28752380D01*
X31028571Y-28752380D02*
X31028571Y-27752380D01*
X30933333Y-27895238D01*
X30838095Y-27990476D01*
X30742857Y-28038095D01*
%TO.C,U1*%
X38338095Y-33752380D02*
X38338095Y-34561904D01*
X38385714Y-34657142D01*
X38433333Y-34704761D01*
X38528571Y-34752380D01*
X38719047Y-34752380D01*
X38814285Y-34704761D01*
X38861904Y-34657142D01*
X38909523Y-34561904D01*
X38909523Y-33752380D01*
X39909523Y-34752380D02*
X39338095Y-34752380D01*
X39623809Y-34752380D02*
X39623809Y-33752380D01*
X39528571Y-33895238D01*
X39433333Y-33990476D01*
X39338095Y-34038095D01*
%TO.C,SW1*%
X33466666Y-44904761D02*
X33609523Y-44952380D01*
X33847619Y-44952380D01*
X33942857Y-44904761D01*
X33990476Y-44857142D01*
X34038095Y-44761904D01*
X34038095Y-44666666D01*
X33990476Y-44571428D01*
X33942857Y-44523809D01*
X33847619Y-44476190D01*
X33657142Y-44428571D01*
X33561904Y-44380952D01*
X33514285Y-44333333D01*
X33466666Y-44238095D01*
X33466666Y-44142857D01*
X33514285Y-44047619D01*
X33561904Y-44000000D01*
X33657142Y-43952380D01*
X33895238Y-43952380D01*
X34038095Y-44000000D01*
X34371428Y-43952380D02*
X34609523Y-44952380D01*
X34800000Y-44238095D01*
X34990476Y-44952380D01*
X35228571Y-43952380D01*
X36133333Y-44952380D02*
X35561904Y-44952380D01*
X35847619Y-44952380D02*
X35847619Y-43952380D01*
X35752380Y-44095238D01*
X35657142Y-44190476D01*
X35561904Y-44238095D01*
%TO.C,R7*%
X67352380Y-40066666D02*
X66876190Y-40400000D01*
X67352380Y-40638095D02*
X66352380Y-40638095D01*
X66352380Y-40257142D01*
X66400000Y-40161904D01*
X66447619Y-40114285D01*
X66542857Y-40066666D01*
X66685714Y-40066666D01*
X66780952Y-40114285D01*
X66828571Y-40161904D01*
X66876190Y-40257142D01*
X66876190Y-40638095D01*
X66352380Y-39733333D02*
X66352380Y-39066666D01*
X67352380Y-39495238D01*
%TO.C,R6*%
X63952380Y-27266666D02*
X63476190Y-27600000D01*
X63952380Y-27838095D02*
X62952380Y-27838095D01*
X62952380Y-27457142D01*
X63000000Y-27361904D01*
X63047619Y-27314285D01*
X63142857Y-27266666D01*
X63285714Y-27266666D01*
X63380952Y-27314285D01*
X63428571Y-27361904D01*
X63476190Y-27457142D01*
X63476190Y-27838095D01*
X62952380Y-26409523D02*
X62952380Y-26600000D01*
X63000000Y-26695238D01*
X63047619Y-26742857D01*
X63190476Y-26838095D01*
X63380952Y-26885714D01*
X63761904Y-26885714D01*
X63857142Y-26838095D01*
X63904761Y-26790476D01*
X63952380Y-26695238D01*
X63952380Y-26504761D01*
X63904761Y-26409523D01*
X63857142Y-26361904D01*
X63761904Y-26314285D01*
X63523809Y-26314285D01*
X63428571Y-26361904D01*
X63380952Y-26409523D01*
X63333333Y-26504761D01*
X63333333Y-26695238D01*
X63380952Y-26790476D01*
X63428571Y-26838095D01*
X63523809Y-26885714D01*
%TO.C,R5*%
X75252380Y-26666666D02*
X74776190Y-27000000D01*
X75252380Y-27238095D02*
X74252380Y-27238095D01*
X74252380Y-26857142D01*
X74300000Y-26761904D01*
X74347619Y-26714285D01*
X74442857Y-26666666D01*
X74585714Y-26666666D01*
X74680952Y-26714285D01*
X74728571Y-26761904D01*
X74776190Y-26857142D01*
X74776190Y-27238095D01*
X74252380Y-25761904D02*
X74252380Y-26238095D01*
X74728571Y-26285714D01*
X74680952Y-26238095D01*
X74633333Y-26142857D01*
X74633333Y-25904761D01*
X74680952Y-25809523D01*
X74728571Y-25761904D01*
X74823809Y-25714285D01*
X75061904Y-25714285D01*
X75157142Y-25761904D01*
X75204761Y-25809523D01*
X75252380Y-25904761D01*
X75252380Y-26142857D01*
X75204761Y-26238095D01*
X75157142Y-26285714D01*
%TO.C,R4*%
X71552380Y-40866666D02*
X71076190Y-41200000D01*
X71552380Y-41438095D02*
X70552380Y-41438095D01*
X70552380Y-41057142D01*
X70600000Y-40961904D01*
X70647619Y-40914285D01*
X70742857Y-40866666D01*
X70885714Y-40866666D01*
X70980952Y-40914285D01*
X71028571Y-40961904D01*
X71076190Y-41057142D01*
X71076190Y-41438095D01*
X70885714Y-40009523D02*
X71552380Y-40009523D01*
X70504761Y-40247619D02*
X71219047Y-40485714D01*
X71219047Y-39866666D01*
%TO.C,R3*%
X71452380Y-26566666D02*
X70976190Y-26900000D01*
X71452380Y-27138095D02*
X70452380Y-27138095D01*
X70452380Y-26757142D01*
X70500000Y-26661904D01*
X70547619Y-26614285D01*
X70642857Y-26566666D01*
X70785714Y-26566666D01*
X70880952Y-26614285D01*
X70928571Y-26661904D01*
X70976190Y-26757142D01*
X70976190Y-27138095D01*
X70452380Y-26233333D02*
X70452380Y-25614285D01*
X70833333Y-25947619D01*
X70833333Y-25804761D01*
X70880952Y-25709523D01*
X70928571Y-25661904D01*
X71023809Y-25614285D01*
X71261904Y-25614285D01*
X71357142Y-25661904D01*
X71404761Y-25709523D01*
X71452380Y-25804761D01*
X71452380Y-26090476D01*
X71404761Y-26185714D01*
X71357142Y-26233333D01*
%TO.C,R2*%
X79252380Y-25866666D02*
X78776190Y-26200000D01*
X79252380Y-26438095D02*
X78252380Y-26438095D01*
X78252380Y-26057142D01*
X78300000Y-25961904D01*
X78347619Y-25914285D01*
X78442857Y-25866666D01*
X78585714Y-25866666D01*
X78680952Y-25914285D01*
X78728571Y-25961904D01*
X78776190Y-26057142D01*
X78776190Y-26438095D01*
X78347619Y-25485714D02*
X78300000Y-25438095D01*
X78252380Y-25342857D01*
X78252380Y-25104761D01*
X78300000Y-25009523D01*
X78347619Y-24961904D01*
X78442857Y-24914285D01*
X78538095Y-24914285D01*
X78680952Y-24961904D01*
X79252380Y-25533333D01*
X79252380Y-24914285D01*
%TO.C,R1*%
X67752380Y-26466666D02*
X67276190Y-26800000D01*
X67752380Y-27038095D02*
X66752380Y-27038095D01*
X66752380Y-26657142D01*
X66800000Y-26561904D01*
X66847619Y-26514285D01*
X66942857Y-26466666D01*
X67085714Y-26466666D01*
X67180952Y-26514285D01*
X67228571Y-26561904D01*
X67276190Y-26657142D01*
X67276190Y-27038095D01*
X67752380Y-25514285D02*
X67752380Y-26085714D01*
X67752380Y-25800000D02*
X66752380Y-25800000D01*
X66895238Y-25895238D01*
X66990476Y-25990476D01*
X67038095Y-26085714D01*
%TO.C,Q4*%
X83547619Y-29095238D02*
X83500000Y-29190476D01*
X83404761Y-29285714D01*
X83261904Y-29428571D01*
X83214285Y-29523809D01*
X83214285Y-29619047D01*
X83452380Y-29571428D02*
X83404761Y-29666666D01*
X83309523Y-29761904D01*
X83119047Y-29809523D01*
X82785714Y-29809523D01*
X82595238Y-29761904D01*
X82500000Y-29666666D01*
X82452380Y-29571428D01*
X82452380Y-29380952D01*
X82500000Y-29285714D01*
X82595238Y-29190476D01*
X82785714Y-29142857D01*
X83119047Y-29142857D01*
X83309523Y-29190476D01*
X83404761Y-29285714D01*
X83452380Y-29380952D01*
X83452380Y-29571428D01*
X82785714Y-28285714D02*
X83452380Y-28285714D01*
X82404761Y-28523809D02*
X83119047Y-28761904D01*
X83119047Y-28142857D01*
%TO.C,Q3*%
X60104761Y-33447619D02*
X60009523Y-33400000D01*
X59914285Y-33304761D01*
X59771428Y-33161904D01*
X59676190Y-33114285D01*
X59580952Y-33114285D01*
X59628571Y-33352380D02*
X59533333Y-33304761D01*
X59438095Y-33209523D01*
X59390476Y-33019047D01*
X59390476Y-32685714D01*
X59438095Y-32495238D01*
X59533333Y-32400000D01*
X59628571Y-32352380D01*
X59819047Y-32352380D01*
X59914285Y-32400000D01*
X60009523Y-32495238D01*
X60057142Y-32685714D01*
X60057142Y-33019047D01*
X60009523Y-33209523D01*
X59914285Y-33304761D01*
X59819047Y-33352380D01*
X59628571Y-33352380D01*
X60390476Y-32352380D02*
X61009523Y-32352380D01*
X60676190Y-32733333D01*
X60819047Y-32733333D01*
X60914285Y-32780952D01*
X60961904Y-32828571D01*
X61009523Y-32923809D01*
X61009523Y-33161904D01*
X60961904Y-33257142D01*
X60914285Y-33304761D01*
X60819047Y-33352380D01*
X60533333Y-33352380D01*
X60438095Y-33304761D01*
X60390476Y-33257142D01*
%TO.C,Q2*%
X60904761Y-43747619D02*
X60809523Y-43700000D01*
X60714285Y-43604761D01*
X60571428Y-43461904D01*
X60476190Y-43414285D01*
X60380952Y-43414285D01*
X60428571Y-43652380D02*
X60333333Y-43604761D01*
X60238095Y-43509523D01*
X60190476Y-43319047D01*
X60190476Y-42985714D01*
X60238095Y-42795238D01*
X60333333Y-42700000D01*
X60428571Y-42652380D01*
X60619047Y-42652380D01*
X60714285Y-42700000D01*
X60809523Y-42795238D01*
X60857142Y-42985714D01*
X60857142Y-43319047D01*
X60809523Y-43509523D01*
X60714285Y-43604761D01*
X60619047Y-43652380D01*
X60428571Y-43652380D01*
X61238095Y-42747619D02*
X61285714Y-42700000D01*
X61380952Y-42652380D01*
X61619047Y-42652380D01*
X61714285Y-42700000D01*
X61761904Y-42747619D01*
X61809523Y-42842857D01*
X61809523Y-42938095D01*
X61761904Y-43080952D01*
X61190476Y-43652380D01*
X61809523Y-43652380D01*
%TO.C,Q1*%
X55547619Y-39095238D02*
X55500000Y-39190476D01*
X55404761Y-39285714D01*
X55261904Y-39428571D01*
X55214285Y-39523809D01*
X55214285Y-39619047D01*
X55452380Y-39571428D02*
X55404761Y-39666666D01*
X55309523Y-39761904D01*
X55119047Y-39809523D01*
X54785714Y-39809523D01*
X54595238Y-39761904D01*
X54500000Y-39666666D01*
X54452380Y-39571428D01*
X54452380Y-39380952D01*
X54500000Y-39285714D01*
X54595238Y-39190476D01*
X54785714Y-39142857D01*
X55119047Y-39142857D01*
X55309523Y-39190476D01*
X55404761Y-39285714D01*
X55452380Y-39380952D01*
X55452380Y-39571428D01*
X55452380Y-38190476D02*
X55452380Y-38761904D01*
X55452380Y-38476190D02*
X54452380Y-38476190D01*
X54595238Y-38571428D01*
X54690476Y-38666666D01*
X54738095Y-38761904D01*
%TO.C,J2*%
X74952380Y-42433333D02*
X75666666Y-42433333D01*
X75809523Y-42480952D01*
X75904761Y-42576190D01*
X75952380Y-42719047D01*
X75952380Y-42814285D01*
X75047619Y-42004761D02*
X75000000Y-41957142D01*
X74952380Y-41861904D01*
X74952380Y-41623809D01*
X75000000Y-41528571D01*
X75047619Y-41480952D01*
X75142857Y-41433333D01*
X75238095Y-41433333D01*
X75380952Y-41480952D01*
X75952380Y-42052380D01*
X75952380Y-41433333D01*
%TO.C,J1*%
X31152380Y-34433333D02*
X31866666Y-34433333D01*
X32009523Y-34480952D01*
X32104761Y-34576190D01*
X32152380Y-34719047D01*
X32152380Y-34814285D01*
X32152380Y-33433333D02*
X32152380Y-34004761D01*
X32152380Y-33719047D02*
X31152380Y-33719047D01*
X31295238Y-33814285D01*
X31390476Y-33909523D01*
X31438095Y-34004761D01*
%TO.C,C3*%
X47057142Y-22066666D02*
X47104761Y-22114285D01*
X47152380Y-22257142D01*
X47152380Y-22352380D01*
X47104761Y-22495238D01*
X47009523Y-22590476D01*
X46914285Y-22638095D01*
X46723809Y-22685714D01*
X46580952Y-22685714D01*
X46390476Y-22638095D01*
X46295238Y-22590476D01*
X46200000Y-22495238D01*
X46152380Y-22352380D01*
X46152380Y-22257142D01*
X46200000Y-22114285D01*
X46247619Y-22066666D01*
X46152380Y-21733333D02*
X46152380Y-21114285D01*
X46533333Y-21447619D01*
X46533333Y-21304761D01*
X46580952Y-21209523D01*
X46628571Y-21161904D01*
X46723809Y-21114285D01*
X46961904Y-21114285D01*
X47057142Y-21161904D01*
X47104761Y-21209523D01*
X47152380Y-21304761D01*
X47152380Y-21590476D01*
X47104761Y-21685714D01*
X47057142Y-21733333D01*
%TO.C,C2*%
X46757142Y-32766666D02*
X46804761Y-32814285D01*
X46852380Y-32957142D01*
X46852380Y-33052380D01*
X46804761Y-33195238D01*
X46709523Y-33290476D01*
X46614285Y-33338095D01*
X46423809Y-33385714D01*
X46280952Y-33385714D01*
X46090476Y-33338095D01*
X45995238Y-33290476D01*
X45900000Y-33195238D01*
X45852380Y-33052380D01*
X45852380Y-32957142D01*
X45900000Y-32814285D01*
X45947619Y-32766666D01*
X45947619Y-32385714D02*
X45900000Y-32338095D01*
X45852380Y-32242857D01*
X45852380Y-32004761D01*
X45900000Y-31909523D01*
X45947619Y-31861904D01*
X46042857Y-31814285D01*
X46138095Y-31814285D01*
X46280952Y-31861904D01*
X46852380Y-32433333D01*
X46852380Y-31814285D01*
%TO.C,C1*%
X45557142Y-40566666D02*
X45604761Y-40614285D01*
X45652380Y-40757142D01*
X45652380Y-40852380D01*
X45604761Y-40995238D01*
X45509523Y-41090476D01*
X45414285Y-41138095D01*
X45223809Y-41185714D01*
X45080952Y-41185714D01*
X44890476Y-41138095D01*
X44795238Y-41090476D01*
X44700000Y-40995238D01*
X44652380Y-40852380D01*
X44652380Y-40757142D01*
X44700000Y-40614285D01*
X44747619Y-40566666D01*
X45652380Y-39614285D02*
X45652380Y-40185714D01*
X45652380Y-39900000D02*
X44652380Y-39900000D01*
X44795238Y-39995238D01*
X44890476Y-40090476D01*
X44938095Y-40185714D01*
%TD*%
M02*
