%TF.GenerationSoftware,KiCad,Pcbnew,(5.1.8)-1*%
%TF.CreationDate,2020-12-12T19:45:25+01:00*%
%TF.ProjectId,blink_controller,626c696e-6b5f-4636-9f6e-74726f6c6c65,rev?*%
%TF.SameCoordinates,Original*%
%TF.FileFunction,Soldermask,Bot*%
%TF.FilePolarity,Negative*%
%FSLAX46Y46*%
G04 Gerber Fmt 4.6, Leading zero omitted, Abs format (unit mm)*
G04 Created by KiCad (PCBNEW (5.1.8)-1) date 2020-12-12 19:45:25*
%MOMM*%
%LPD*%
G01*
G04 APERTURE LIST*
%ADD10C,2.700000*%
%ADD11C,3.000000*%
%ADD12O,1.600000X1.600000*%
%ADD13R,1.600000X1.600000*%
%ADD14C,1.700000*%
%ADD15C,1.600000*%
%ADD16R,1.500000X1.500000*%
%ADD17C,1.500000*%
%ADD18O,3.960000X1.980000*%
%ADD19R,3.960000X1.980000*%
G04 APERTURE END LIST*
D10*
%TO.C,F1*%
X33350000Y-25500000D03*
D11*
X22100000Y-25500000D03*
X44600000Y-25500000D03*
%TD*%
D12*
%TO.C,U1*%
X42920000Y-33300000D03*
X35300000Y-40920000D03*
X42920000Y-35840000D03*
X35300000Y-38380000D03*
X42920000Y-38380000D03*
X35300000Y-35840000D03*
X42920000Y-40920000D03*
D13*
X35300000Y-33300000D03*
%TD*%
D14*
%TO.C,SW1*%
X40240000Y-44400000D03*
X37700000Y-44400000D03*
%TD*%
D12*
%TO.C,R7*%
X66925000Y-34365000D03*
D15*
X66925000Y-44525000D03*
%TD*%
D12*
%TO.C,R6*%
X63275000Y-31360000D03*
D15*
X63275000Y-21200000D03*
%TD*%
D12*
%TO.C,R5*%
X74875000Y-21240000D03*
D15*
X74875000Y-31400000D03*
%TD*%
D12*
%TO.C,R4*%
X70925000Y-44585000D03*
D15*
X70925000Y-34425000D03*
%TD*%
D12*
%TO.C,R3*%
X71075000Y-21340000D03*
D15*
X71075000Y-31500000D03*
%TD*%
D12*
%TO.C,R2*%
X78575000Y-21340000D03*
D15*
X78575000Y-31500000D03*
%TD*%
D12*
%TO.C,R1*%
X67175000Y-31460000D03*
D15*
X67175000Y-21300000D03*
%TD*%
D16*
%TO.C,Q4*%
X82800000Y-26550000D03*
D17*
X82800000Y-31630000D03*
X85340000Y-29090000D03*
%TD*%
D16*
%TO.C,Q3*%
X63600000Y-35550000D03*
D17*
X58520000Y-35550000D03*
X61060000Y-38090000D03*
%TD*%
D16*
%TO.C,Q2*%
X58575000Y-43675000D03*
D17*
X63655000Y-43675000D03*
X61115000Y-41135000D03*
%TD*%
D16*
%TO.C,Q1*%
X53200000Y-39700000D03*
D17*
X53200000Y-44780000D03*
X55740000Y-42240000D03*
%TD*%
D18*
%TO.C,J2*%
X79850000Y-37250000D03*
D19*
X79850000Y-42250000D03*
%TD*%
D18*
%TO.C,J1*%
X26800000Y-39600000D03*
D19*
X26800000Y-34600000D03*
%TD*%
D15*
%TO.C,C3*%
X51600000Y-22700000D03*
D13*
X51600000Y-26500000D03*
%TD*%
D15*
%TO.C,C2*%
X51600000Y-32000000D03*
D13*
X51600000Y-35800000D03*
%TD*%
D15*
%TO.C,C1*%
X47700000Y-39300000D03*
X47700000Y-44300000D03*
%TD*%
M02*
